<svg width="22" height="22" viewBox="0 0 22 22" fill="none" xmlns="http://www.w3.org/2000/svg">
<path d="M11.25 0.5C5.45156 0.5 0.75 5.32344 0.75 11.2672C0.75 16.025 3.75937 20.0562 7.93125 21.4812C7.98977 21.494 8.04949 21.5002 8.10938 21.5C8.49844 21.5 8.64844 21.2141 8.64844 20.9656C8.64844 20.7078 8.63906 20.0328 8.63437 19.1328C8.28705 19.2142 7.93173 19.2567 7.575 19.2594C5.55469 19.2594 5.09531 17.6891 5.09531 17.6891C4.61719 16.4469 3.92813 16.1141 3.92813 16.1141C3.01406 15.4719 3.92344 15.4531 3.99375 15.4531H3.99844C5.05313 15.5469 5.60625 16.5687 5.60625 16.5687C6.13125 17.4875 6.83437 17.7453 7.4625 17.7453C7.87783 17.737 8.28673 17.6412 8.6625 17.4641C8.75625 16.7703 9.02812 16.2969 9.32812 16.025C6.99844 15.7531 4.54688 14.8297 4.54688 10.7047C4.54688 9.52812 4.95469 8.56719 5.625 7.81719C5.51719 7.54531 5.15625 6.44844 5.72812 4.96719C5.80483 4.94883 5.88368 4.94095 5.9625 4.94375C6.34219 4.94375 7.2 5.08906 8.61563 6.07344C10.3357 5.59218 12.1549 5.59218 13.875 6.07344C15.2906 5.08906 16.1484 4.94375 16.5281 4.94375C16.6069 4.94095 16.6858 4.94883 16.7625 4.96719C17.3344 6.44844 16.9734 7.54531 16.8656 7.81719C17.5359 8.57187 17.9437 9.53281 17.9437 10.7047C17.9437 14.8391 15.4875 15.7484 13.1484 16.0156C13.5234 16.3484 13.8609 17.0047 13.8609 18.0078C13.8609 19.4469 13.8469 20.6094 13.8469 20.9609C13.8469 21.2141 13.9922 21.5 14.3812 21.5C14.4442 21.5003 14.5071 21.494 14.5687 21.4812C18.7453 20.0562 21.75 16.0203 21.75 11.2672C21.75 5.32344 17.0484 0.5 11.25 0.5Z" fill="white"/>
</svg>
